<svg width="63" height="53" viewBox="0 0 63 53" fill="none" xmlns="http://www.w3.org/2000/svg">
<g filter="url(#filter0_d_60_178)">
<path fill-rule="evenodd" clip-rule="evenodd" d="M29.6687 30.4651C28.5342 34.0749 27.2331 41.4274 33.047 41.4717C36.7464 41.4993 41.1821 38.6541 41.9813 34.8834C42.9826 30.1575 38.0084 27.9924 34.2005 27.5094C33.1044 27.37 31.9923 27.3202 30.8736 27.3332C30.4134 28.3533 30.0047 29.3964 29.6687 30.4651ZM4.30342 34.0109C11.4066 29.2543 20.1992 25.7753 28.908 25.1653C29.81 23.415 30.7969 21.8251 31.7017 20.5313C36.9586 13.016 45.34 6.37802 53.9757 3.20671C54.9195 2.86047 55.6755 3.81409 55.5582 4.63196C55.6764 4.18572 55.7891 3.73789 55.8963 3.28847C54.7133 3.05603 53.5316 3.01657 52.2887 3.17547C51.5293 3.27282 50.7517 3.59418 49.9982 3.63164C49.5494 3.65406 49.435 3.3548 48.9493 3.4458C48.7943 3.47485 48.6386 3.30192 48.7689 3.16516C49.1259 2.791 49.1084 2.35445 49.4812 1.99521C50.0682 1.42904 51.4376 1.055 52.1924 0.872925C54.0721 0.419445 56.0097 0.490306 57.887 0.903502C58.671 1.07633 59.051 1.83489 58.9452 2.58279C58.6862 4.41629 58.1669 6.2132 57.5392 7.95207C56.9951 9.45846 56.4743 11.205 55.3271 12.3559C54.4282 13.2588 52.9434 12.4874 53.165 11.2315C53.4351 9.69898 54.3631 8.29846 54.889 6.83045C55.1145 6.20109 55.302 5.56497 55.4769 4.92564C55.3892 5.11857 55.2417 5.29172 55.0195 5.42103C47.8411 9.5985 40.9065 13.3757 35.5274 19.9217C34.2056 21.529 33.0164 23.2568 32.0046 25.0812C32.1953 25.0833 32.3879 25.0772 32.5795 25.0819C38.8767 25.2498 47.2174 29.296 44.0033 36.9545C41.7228 42.3906 31.9084 47.4926 27.556 41.4868C24.775 37.6497 25.7779 32.2535 27.8018 27.5163C25.1169 27.7947 22.4392 28.3461 19.8902 28.9005C14.5762 30.0555 9.40159 31.9787 4.49182 34.3011C4.29707 34.393 4.11227 34.1387 4.30342 34.0109Z" fill="black"/>
</g>
<defs>
<filter id="filter0_d_60_178" x="0.2229" y="0.562134" width="62.7397" height="51.631" filterUnits="userSpaceOnUse" color-interpolation-filters="sRGB">
<feFlood flood-opacity="0" result="BackgroundImageFix"/>
<feColorMatrix in="SourceAlpha" type="matrix" values="0 0 0 0 0 0 0 0 0 0 0 0 0 0 0 0 0 0 127 0" result="hardAlpha"/>
<feOffset dy="4"/>
<feGaussianBlur stdDeviation="2"/>
<feComposite in2="hardAlpha" operator="out"/>
<feColorMatrix type="matrix" values="0 0 0 0 0 0 0 0 0 0 0 0 0 0 0 0 0 0 0.25 0"/>
<feBlend mode="normal" in2="BackgroundImageFix" result="effect1_dropShadow_60_178"/>
<feBlend mode="normal" in="SourceGraphic" in2="effect1_dropShadow_60_178" result="shape"/>
</filter>
</defs>
</svg>
